<?xml version="1.0" encoding="utf-8"?>
<!-- Generator: Adobe Illustrator 26.0.3, SVG Export Plug-In . SVG Version: 6.00 Build 0)  -->
<svg version="1.1" id="Шар_1" xmlns="http://www.w3.org/2000/svg" xmlns:xlink="http://www.w3.org/1999/xlink" x="0px" y="0px"
	 viewBox="0 0 2834.65 2834.65" style="enable-background:new 0 0 2834.65 2834.65;" xml:space="preserve">
<g>
	<path d="M481.87,1310.03v-34.71l33.37-5.6v-81.52h232.69v77.04l-67.63,11.42l76.82,68.31h-80.85l-63.82-56.88l-38.75,6.49v50.39
		h-58.45v-40.53L481.87,1310.03z M573.69,1259.41l115.79-19.49V1220H573.69V1259.41z"/>
	<path d="M768.31,1344.96L822.96,1220h-27.77v-31.81h155.65l68.08,156.77h-60.47l-17.02-39.19h-95.41l-17.02,39.19H768.31z
		 M859.91,1273.97h67.63L903.81,1220h-20.16L859.91,1273.97z"/>
	<path d="M1016.67,1220v-31.81h73.24l61.59,65.17l55.76-65.17h68.75l-95.41,111.53v45.24h-58.45v-48.15L1049.6,1220H1016.67z"/>
	<path d="M1271.54,1220v-31.81h194.39l71.44,38.08v118.7h-232.47V1220H1271.54z M1363.58,1313.16h115.56v-77.94l-28.67-15.23h-86.9
		V1313.16z"/>
	<path d="M1557.53,1310.03v-34.71l33.37-5.6v-81.52h232.69v77.04l-67.63,11.42l76.82,68.31h-80.85l-63.82-56.88l-38.75,6.49v50.39
		h-58.45v-40.53L1557.53,1310.03z M1649.35,1259.41l115.79-19.49V1220h-115.79V1259.41z"/>
	<path d="M1864.12,1344.96v-156.77h232.69v156.77H1864.12z M1922.58,1313.16h115.78V1220h-115.78V1313.16z"/>
	<path d="M2119.21,1314.06v-35.16l33.37-5.6v-85.1h232.69v81.07l-174.24,29.33v46.36h-58.45v-36.51L2119.21,1314.06z
		 M2211.03,1263.44l115.79-19.48V1220h-115.79V1263.44z"/>
</g>
</svg>
